# xmcd CD database file
#
# Track frame offsets:
#	150
#	15754
#	37235
#	54400
#	69494
#	92839
#	105464
#	144598
#	162151
#	179068
#	210610
#	232484
#	249679
#	264533
#	275683
#	291310
#	306596
#	323238
#	341001
#
# Disc length: 4724 seconds
#
# Revision: 0
# Processed by: cddbd v1.5.2PL0 Copyright (c) Steve Scherf et al.
# Submitted via: CDex 1.60beta1-cs1
#
DISCID=2d127213
DTITLE=Anna Maria Jopek and Freinds with Pat Metheny - Upojenie
DYEAR=2002
DGENRE=Jazz
TTITLE0=Cichy Zapada Zmrok
TTITLE1=Przyplyw Odplyw, Oddech Czasu
TTITLE2=Tam, Gdzie Nie Siega Wzrok
TTITLE3=Biel
TTITLE4=Czarne Slowa
TTITLE5=Letter From Home
TTITLE6=Are You Going With Me
TTITLE7=Zupelnie Inna Ja
TTITLE8=Mania Mienia
TTITLE9=By On Byl Tu
TTITLE10=Upojenie
TTITLE11=Piosenka Dla Stasia
TTITLE12=Me Jedyne Niebo
TTITLE13=Polskie Drogi
TTITLE14=Na Dloni
TTITLE15=Ja Wysiadam
TTITLE16=O Co Tyle Milczenia
TTITLE17=Wspomnienie
TTITLE18=Ale Jestem
EXTD=YEAR: 2002
EXTT0=
EXTT1=
EXTT2=
EXTT3=
EXTT4=
EXTT5=
EXTT6=
EXTT7=
EXTT8=
EXTT9=
EXTT10=
EXTT11=
EXTT12=
EXTT13=
EXTT14=
EXTT15=
EXTT16=
EXTT17=
EXTT18=
PLAYORDER=
